<svg id="OBJECTS" xmlns="http://www.w3.org/2000/svg" xmlns:xlink="http://www.w3.org/1999/xlink" viewBox="0 0 375 541.38"><defs><style>.cls-1{fill:none;}.cls-2{fill:#f2f3f3;}.cls-3{fill:#ccc;}.cls-4{fill:#333;}.cls-5{fill:#e6e6e6;}.cls-24,.cls-6{fill:#fff;}.cls-7{fill:#b3b3b3;}.cls-8{fill:#cce2f8;}.cls-9{fill:#366ed8;}.cls-10{fill:#86a8e8;}.cls-11{clip-path:url(#clip-path);}.cls-12{fill:#8796a6;}.cls-13{fill:#c1845b;}.cls-14{fill:#dd9666;}.cls-15{fill:#a6714d;}.cls-16{clip-path:url(#clip-path-2);}.cls-17{fill:#f3a953;}.cls-18{opacity:0.16;}.cls-19{fill:#999;}.cls-20{fill:#4d4d4d;}.cls-21{fill:gray;}.cls-22{fill:#e0eefb;}.cls-23{fill:#ebf3fc;}.cls-24{opacity:0.72;}</style><clipPath id="clip-path"><rect class="cls-1" x="254.63" y="302.27" width="31.74" height="39.39" rx="5" ry="5"/></clipPath><clipPath id="clip-path-2"><rect class="cls-1" x="160.87" y="420.43" width="31.74" height="31.74" rx="5" ry="5"/></clipPath></defs><title>bg_bottom_mobile</title><path class="cls-2" d="M375,397.44V541.38H73.43s-39.76-4.65-35-49.72,83.87-45.63,93.43-54.17-5.87-19.72,44.7-39.13c29.93-11.48,78.68-18.33,109.77-15.89C330.56,385.93,375,397.44,375,397.44Z"/><path class="cls-2" d="M269.67,295.5c0,23.38-20.54,16.7-56.48,34.49-63.38,31.36-73.56,1.82-73.56-21.55s26.1-55.26,66.19-55.26S269.67,272.13,269.67,295.5Z"/><path class="cls-3" d="M276,474.66c0,2.89-30.13,5.24-67.3,5.24s-67.29-2.35-67.29-5.24,30.13-5.23,67.29-5.23S276,471.77,276,474.66Z"/><ellipse class="cls-3" cx="96.21" cy="484.64" rx="29.57" ry="7.02"/><ellipse class="cls-3" cx="165.38" cy="493.04" rx="50.43" ry="6.97"/><ellipse class="cls-3" cx="273.74" cy="488.67" rx="35.57" ry="16.97"/><ellipse class="cls-3" cx="331.5" cy="457.05" rx="22.77" ry="6.81"/><path class="cls-3" d="M192.61,444.51c0,1.31-14.22,2.37-31.77,2.37s-31.78-1.06-31.78-2.37,14.23-2.37,31.78-2.37S192.61,443.2,192.61,444.51Z"/><path class="cls-3" d="M314.66,444.43c0,.72-14,1.3-31.23,1.3s-31.23-.58-31.23-1.3,14-1.3,31.23-1.3S314.66,443.71,314.66,444.43Z"/><path class="cls-4" d="M330.84,448.89a10.73,10.73,0,0,1,.49,3.7c-.16,1.72,0,2.21-.49,2.21s-2.79.09-3,0-.66-1.64-1.07-1.23.09,1.14-.49,1.27-6.65.69-8.21,0-1.31-1,.41-1.6,8-2.54,9.36-4.35S330.84,448.89,330.84,448.89Z"/><path class="cls-4" d="M332.86,410.89s-4.27,10.18-5.09,12,2.14,2.46,3.12,12a109.38,109.38,0,0,1,.66,15.59s-4.76,1-5.09-.65c0,0-.66-8.05-2.95-12.65s-3.94-8.37-3.62-12.8,4.6-25.12,4.6-25.12l4.93-10,5.41.82Z"/><rect class="cls-5" x="243.61" y="289.04" width="82.45" height="145.94" rx="10" ry="10"/><rect class="cls-6" x="248.46" y="294.34" width="72.95" height="135.33" rx="10" ry="10"/><rect class="cls-7" x="291.67" y="329.9" width="20.88" height="1.85"/><rect class="cls-7" x="291.67" y="334.31" width="17.34" height="1.85"/><rect class="cls-3" x="254.63" y="364.77" width="57.76" height="1.85"/><rect class="cls-3" x="254.63" y="373.59" width="60.03" height="1.85"/><rect class="cls-3" x="254.63" y="378" width="54.37" height="1.85"/><rect class="cls-3" x="254.63" y="369.18" width="60.03" height="1.85"/><rect class="cls-3" x="254.63" y="396.52" width="57.76" height="1.85"/><rect class="cls-3" x="254.63" y="405.34" width="60.03" height="1.85"/><rect class="cls-3" x="254.63" y="409.74" width="54.37" height="1.85"/><rect class="cls-3" x="254.63" y="414.15" width="42.72" height="1.85"/><rect class="cls-3" x="254.63" y="418.56" width="46.74" height="1.85"/><rect class="cls-3" x="254.63" y="400.93" width="60.03" height="1.85"/><rect class="cls-8" x="254.63" y="302.27" width="31.74" height="39.39" rx="5" ry="5"/><rect class="cls-9" x="291.67" y="314.91" width="22.99" height="7.94"/><rect class="cls-10" x="255.18" y="351.73" width="47.18" height="3.38"/><rect class="cls-10" x="255.18" y="357.9" width="52.3" height="3.38"/><rect class="cls-10" x="255.18" y="389.65" width="47.18" height="3.38"/><g class="cls-11"><path class="cls-12" d="M256.32,338.84c0-5.29,6.39-9.58,14.26-9.58s14.26,4.29,14.26,9.58v5.3H256.32Z"/></g><ellipse class="cls-6" cx="270.46" cy="331.56" rx="4.71" ry="1.57"/><path class="cls-13" d="M273.71,331.24s-.74,1-3,1-3-1-3-1v-3.5h6Z"/><polygon class="cls-14" points="265.06 312.17 264.65 319.01 268.36 322.3 273.3 322.3 276.26 318.59 275.77 311.67 271.73 310.02 267.12 310.52 265.06 312.17"/><path class="cls-14" d="M265.31,315.38s-1.49-2.47-2.81-2.47.17,2.72,1.4,3.87l1.24,1.15Z"/><path class="cls-14" d="M275.9,315.25s1.69-2.33,3-2.22-.4,2.7-1.73,3.74l-1.33,1Z"/><path class="cls-4" d="M264.65,316.16s-1.34,4.82-1,6.14.34,5.85,6.81,6.1,6.63-4,6.71-6.1a46.29,46.29,0,0,0-.9-7.08l-.83,0s1.32,5.65-5,5.65-5-4.74-5.15-5.95c-.1-.69-.66-.5-.66-.5Z"/><path class="cls-4" d="M264.65,314.45s.16-2.86-.33-3.6a2.88,2.88,0,0,1,1.32-3.63c1.64-1.07,1.89-.9,2.71-.82s4.37.58,5.2.49,2.8-.74,3.29,2.89-.49,4.53-.57,5.44l-.83,0s-.58-2.26-1.48-2.67a4.55,4.55,0,0,0-3-.5c-1.15.25-1.73.75-3.38.66s-1.73-.57-2-.08a13.07,13.07,0,0,0-.33,2.72Z"/><path class="cls-15" d="M269.84,314.89l-.17,3s.42.91,1.57.08l-.41-3.13S270.25,314.06,269.84,314.89Z"/><rect class="cls-5" x="109.14" y="300.5" width="110.23" height="122.57" rx="10" ry="10"/><rect class="cls-6" x="112.68" y="304.44" width="103.14" height="114.69" rx="10" ry="10"/><rect class="cls-8" x="119.72" y="312.26" width="41.74" height="41.74" rx="5" ry="5"/><path class="cls-12" d="M123.47,354c0-4,7.64-11.76,17.08-11.76S157.64,350,157.64,354Z"/><polygon class="cls-6" points="137.35 342.39 135.37 347.38 140.59 343.86 137.35 342.39"/><polygon class="cls-6" points="144.11 342.39 140.59 343.86 145.44 347.46 144.11 342.39"/><path class="cls-4" d="M153.23,334.89c-.15-1.91-2.8-8.82-5.44-13.23a7.14,7.14,0,0,0-7.35-3.28,7.14,7.14,0,0,0-7.35,3.28c-2.64,4.41-5.29,11.32-5.44,13.23s.15,6.58,12.79,3.85C153.08,341.47,153.37,336.79,153.23,334.89Z"/><polygon class="cls-13" points="138.68 336.8 137.35 342.39 140.59 343.86 144.11 342.39 142.5 336.51 138.68 336.8"/><path class="cls-14" d="M134.71,327.69s-1.77,9.85,5.73,10,6.17-9.55,6.17-9.55l-1.17-3.53-3.38-3.52-3.09.29Z"/><path class="cls-4" d="M134.71,327.69a4.9,4.9,0,0,0,5.88-4.26s.44,4.7,5.88,4l.58-1.91-2.94-4.27-2.49-1.47-4.56.3-2.65,6.61Z"/><path class="cls-15" d="M140.15,329l-.52,3.6a1.42,1.42,0,0,0,1.77,0l-.52-3.74S140.37,328.43,140.15,329Z"/><rect class="cls-9" x="168.81" y="325.19" width="37.62" height="7.94"/><rect class="cls-7" x="168.81" y="340.18" width="30.02" height="1.85"/><rect class="cls-7" x="168.81" y="349" width="19.22" height="1.85"/><rect class="cls-7" x="168.81" y="344.59" width="37.62" height="1.85"/><rect class="cls-10" x="119.72" y="368.55" width="47.18" height="3.38"/><rect class="cls-3" x="119.17" y="378.06" width="86.66" height="1.85"/><rect class="cls-3" x="119.17" y="386.88" width="81.1" height="1.85"/><rect class="cls-3" x="119.17" y="382.47" width="90.05" height="1.85"/><rect class="cls-3" x="119.17" y="403.63" width="66.16" height="1.85"/><rect class="cls-3" x="119.17" y="408.04" width="59.81" height="1.85"/><rect class="cls-10" x="119.72" y="394.12" width="47.18" height="3.38"/><rect class="cls-5" x="149.7" y="409.85" width="119.04" height="66.58" rx="10" ry="10"/><rect class="cls-6" x="153.25" y="413.17" width="112.06" height="60.16" rx="10" ry="10"/><rect class="cls-9" x="200.55" y="423.47" width="37.62" height="7.94"/><rect class="cls-7" x="200.55" y="438.46" width="30.02" height="1.85"/><rect class="cls-7" x="200.55" y="442.87" width="43.62" height="1.85"/><rect class="cls-3" x="160.8" y="463.11" width="95.11" height="1.85"/><rect class="cls-3" x="160.8" y="467.52" width="98.83" height="1.85"/><rect class="cls-10" x="161.35" y="456.24" width="47.18" height="3.38"/><rect class="cls-8" x="160.87" y="420.43" width="31.74" height="31.74" rx="5" ry="5"/><path class="cls-4" d="M177.27,444.73s8.44.61,8.44,0V437.4c0-1.82-.55-9.09-3.3-11.74s-5.2-.71-5.2-.71-2.43-1.93-5.19.71-3.31,9.92-3.31,11.74v7.33c0,.61,8.44,0,8.44,0Z"/><g class="cls-16"><ellipse class="cls-12" cx="177.15" cy="450.98" rx="12.96" ry="9.72"/></g><path class="cls-6" d="M181,442.72c0,.59-1.74,4.16-3.81,4.16s-3.66-3.57-3.66-4.16,1.67-1.07,3.74-1.07S181,442.13,181,442.72Z"/><path class="cls-13" d="M180,442.47a4.33,4.33,0,0,1-2.84.88,4,4,0,0,1-2.75-.88v-3.23H180Z"/><path class="cls-14" d="M171.77,430.79s-1.39,9.09,5.42,9.26,5.33-9.48,5.33-9.76L180,428.14l-5.59-.49Z"/><path class="cls-4" d="M171.3,430.13s-.44,1.48,2,1.26a5.24,5.24,0,0,0,3.4-1.26s-1.52,2.2-.42,2.31,5.12-1.65,5.51-2.31c0,0-2.65,3.36,1.32.71v-2.09l-2.92-2.21H174.4Z"/><path class="cls-15" d="M176.86,433.85l-.25,2.45a.92.92,0,0,0,1.21,0l-.22-2.45S177.18,433.44,176.86,433.85Z"/><path class="cls-13" d="M339,351.78l-.25,6.08s4.6,1.64,4.6,0c0-.49.16-5.91.33-6.73S339,351.78,339,351.78Z"/><path class="cls-4" d="M339,453a10.18,10.18,0,0,1,.39,3c-.09,1.36,0,2.14-.58,2.24s-1.85.29-2.15,0-.15-1-.58-1.12-.59,1-.88,1.7-4.78,2.44-6.73,2.44-1.85-.39-1.75-1.07,1.07-.29,2.24-1.56,5.75-5.37,6-6.24,3.6-.39,3.6-.39Z"/><path class="cls-4" d="M329.58,395.78s1.81,15.93,2.46,22.49,1.81,9.53,2.3,17.41.62,16.69.62,16.69a3.85,3.85,0,0,0,3.6-.39s3.17-12.86,3.33-17.45-1.31-8.54-1-12,3.61-18.55,3.94-22.32-1.32-10.18-2.14-11.82-11.32,0-11.32,0l-2,.82Z"/><path class="cls-17" d="M329.74,384.29s-1.8,4.11-.32,4.93a16.83,16.83,0,0,0,9.85,1.47c3.77-.82,4.92-1.64,5.91-3.61s3.77-9.19,3.94-15.1a34.36,34.36,0,0,0-2.79-13.3,5.15,5.15,0,0,0-2.47-1.81,42,42,0,0,0-4.27.33c-.82,0-3.94-.49-6.73,3.29S329.74,384.29,329.74,384.29Z"/><path class="cls-18" d="M330.36,389.65a11.56,11.56,0,0,0,10.33-6.26c3.45-6.61,3.44-10.29,2.71-13.15S339,363.7,339,363.7l-2.67-1.05c-.82,0-.66-5.94-3.45-2.16s-3.12,23.8-3.12,23.8-1.8,4.11-.32,4.93"/><path class="cls-14" d="M336.23,340.62a52.56,52.56,0,0,0-1.89,6.24c-.25,1.72-1.07,4.84,3.28,5.33s6.08-1.06,6.08-1.06l1.64-2.14,2-2.38.41-5.74-6.4-1.32Z"/><path class="cls-4" d="M338.2,342s-3.28-.66-2.79-3,4.43-3.45,5.91-4.1,5.66-.58,7.63,1.64a9.34,9.34,0,0,1,2.38,7.63c-.41,2.63-4.51,6.32-5.25,7.31a2.78,2.78,0,0,1-2.3,1.15c-.41-.08-1.72.16-2-.33a5.59,5.59,0,0,1-.16-3c.24-1,1.8-2.13,1.8-2.13s2.71,0,2.47-1.64-.91-1.89-1.73-1.64a4.05,4.05,0,0,0-1.39.74s-.91.41-1-.58-.08-1.48-1-1.64S338.69,342.18,338.2,342Z"/><path class="cls-15" d="M335.41,342.34l-1.32,3.37s.09.9,1.24.49l.9-3.44S336,342,335.41,342.34Z"/><path class="cls-14" d="M307.91,387.16a5.93,5.93,0,0,1-2.38-.08c-.66-.33-1.89-1.64-2.79-1.89s-1.48,0-1.32.33,2.14,1.32,1.89,1.56a61.25,61.25,0,0,1-6.56,2.38c-1.24.33-.83,3.2.24,3.29s8.37-.17,11.74-3.29Z"/><path class="cls-17" d="M334.51,358.76a27.54,27.54,0,0,0-6.74,9.52c-2.46,5.91-2.87,6.74-3.61,7.06s-8.21,3.29-12.72,7.23-4.35,3.44-4.27,4.43.49,2.95,1.4,3,16.58-.74,22-4.11,8.3-11.41,8.79-13.46,2.38-7.31.57-10.42S335.82,358.11,334.51,358.76Z"/><path class="cls-13" d="M112.33,364l-.77-6.06h-2.42s-1.55,0-1.55.33-.33,6.94-.33,6.94l3.86-.22Z"/><rect class="cls-4" x="61.41" y="436.61" width="101.4" height="1.76" transform="translate(-331.2 523.77) rotate(-86.64)"/><rect class="cls-4" x="36.02" y="434.34" width="102.81" height="1.76" transform="translate(-355.74 461.03) rotate(-81.98)"/><rect class="cls-4" x="81.87" y="473.77" width="28.06" height="1.76"/><rect class="cls-4" x="84.35" y="456.15" width="26.61" height="1.76"/><rect class="cls-4" x="86.63" y="440.38" width="25.26" height="1.76"/><rect class="cls-4" x="88.78" y="424.72" width="24.04" height="1.76"/><rect class="cls-4" x="90.65" y="411.39" width="22.94" height="1.76"/><rect class="cls-4" x="92.48" y="398.38" width="21.88" height="1.76"/><path class="cls-14" d="M144.11,363.88s2.61-1,3.38-2.09a8.06,8.06,0,0,1,3-2.32c.44-.11,1.21.11.88.55a11.33,11.33,0,0,1-1.54,1.33,30.93,30.93,0,0,0,4.3-.56c1.1-.33,2.2-.66,2.53-.44s1.66,2.43.33,2.87-6.28,2.2-8.59,2.31-4,.34-4,.34Z"/><path class="cls-14" d="M110.46,358.7s3.67-1.36,4.26-2.5c1-1.84,1.36-2.9.48-5.77s-1.88-4.07-1.88-4.63-4-1-4-1l-4.74,1.88,1.32,6.72Z"/><path class="cls-14" d="M93,437.62a23.22,23.22,0,0,0-1.73,2.15,31,31,0,0,0-4.77,9.65A101,101,0,0,0,83.78,463l3.09.89s4.74-9.37,6.61-12.9,3.75-5.29,4-6.5,1.66-6.95,1.66-6.95l-1.44-.88Z"/><path class="cls-18" d="M93.48,451c1.88-3.53,3.75-5.29,4-6.5s1.66-6.95,1.66-6.95l-1.44-.88-4.63,1a23.22,23.22,0,0,0-1.73,2.15,11.36,11.36,0,0,0,3,2C95.36,442.14,93.48,451,93.48,451Z"/><path class="cls-14" d="M96.13,438.17s-.19,1.38-.27,3.75a72.67,72.67,0,0,0,.38,10.25c.88,8.27,1.87,15.87,1.87,16.76s3.64.33,3.64.33,1.1-15.21,1.43-19.73c.17-2.22.33-5,.44-7.49s.17-4.68.12-5.3c-.11-1.21-4.3-1.65-4.3-1.65Z"/><path class="cls-18" d="M103.62,442c.11-2.55.17-4.68.12-5.3-.11-1.21-4.3-1.65-4.3-1.65l-3.31,3.08s-.19,1.38-.27,3.75a15.38,15.38,0,0,0,7.21.11Z"/><path class="cls-4" d="M83.56,462.09a12.09,12.09,0,0,0-1.43,4c-.11,1.65-.88,1.76-.11,2.09s2.65,1.11,3,.78.66-1.11,1-.89.22,1.22.22,1.22,3.42,1.1,5.29,1.65,2.31.44,2.43,0-1.11-.55-2.21-1.65a61.73,61.73,0,0,1-4.63-6C87,463,84.45,463.08,83.56,462.09Z"/><path class="cls-4" d="M97.89,468.26a7.21,7.21,0,0,0-.33,3.53c.33,1.88-.44,2.65.44,2.76s3,.33,3.2,0,.11-1.44.55-1.22.11,1.33.66,1.33,7,0,8-.33.44-1.11-.33-1.33a13.37,13.37,0,0,1-4.08-1.21c-1.43-.88-3.42-3-4.19-3.31C101.86,468.48,98.44,468.82,97.89,468.26Z"/><path class="cls-4" d="M93.85,393.68s-.72,1.29-1.62,3.23c-1.5,3.22-3.47,8.26-3.38,12.2.15,6.32,2.5,29.25,2.5,29.25s9,2.94,14.11.73c0,0,4.12-30,4.41-35.86a41.91,41.91,0,0,0-.59-10Z"/><path class="cls-17" d="M94,371.19c-.2.42-1.91,4.26-1.76,11S90.91,393.38,93,395s14,2.21,16.9.44,6.61-9.26,7.06-14a46.66,46.66,0,0,0,.29-6.76s7,3.67,12.49,3.09,13.52-8.09,15.43-12.2a7.16,7.16,0,0,0-.44-2.06c-.29-.44-2.64-1-7.35-.15s-7.2,2.94-10.14,2.8-9-3.53-12.2-3.83a37.24,37.24,0,0,0-10.58.89C101.05,364,96.64,365.46,94,371.19Z"/><path class="cls-18" d="M93,395c2.06,1.62,14,2.21,16.9.44s6.61-9.26,7.06-14a46.66,46.66,0,0,0,.29-6.76L115,373.54a31.11,31.11,0,0,1-2.79,11.76c-2.79,6-4.85,8.08-9.4,8.53S93,395,93,395Z"/><path class="cls-4" d="M110.46,348.12s.15-1.76.88-1.62,2.5.44,2.94-.14,1.47-2.06-.59-3.24-2.5-2.94-7-3.23-8.38.59-9.85,7.35-1.17,13.52-2.5,16.75-2.64,6.61-1.76,7.35a13.15,13.15,0,0,0,5.58,2.35c1.91.15,2.94.59,3.38-.44a4.85,4.85,0,0,1,.89-1.47s-.15,2.35.44,2.65,5.29.73,7.64-.74,1.91-2.35,1.76-5-1-4.85-1.47-7.64.3-6-.73-7.35a12.31,12.31,0,0,0-1.77-1.91s-2.79-.88-1.91-2.05,2.65.14,2.65.14A2,2,0,0,0,110.46,348.12Z"/><path class="cls-15" d="M114.68,348.51,116,351s-.08.66-1.23.36l-.91-2.52A.61.61,0,0,1,114.68,348.51Z"/><path class="cls-5" d="M289.28,500,245.6,498c-1.87-.08-4.4-1.95-2.51-5.16L255,474.6l41.45,1.95a1.81,1.81,0,0,1,1.66,2.3l-5.31,18.64A3.5,3.5,0,0,1,289.28,500Z"/><path class="cls-5" d="M296.8,476.56l-42.27-2,1.35-28.75a2.57,2.57,0,0,1,2.69-2.45l39.06,1.83c1.42.06,2.51,1.22,2.42,3.3l-1.23,26.21A1.93,1.93,0,0,1,296.8,476.56Z"/><path class="cls-7" d="M256.15,444.2h39.18a2.53,2.53,0,0,1,2.53,2.53v28.83a0,0,0,0,1,0,0H253.62a0,0,0,0,1,0,0V446.73A2.53,2.53,0,0,1,256.15,444.2Z" transform="translate(21.82 -12.4) rotate(2.68)"/><rect class="cls-17" x="263.39" y="441.18" width="24.31" height="38.2" transform="matrix(0.05, -1, 1, 0.05, -197.12, 713.99)"/><path class="cls-6" d="M257.75,448l36.66,1.72-1.07,22.78-36.66-1.72L257.75,448m-1.43-1.57-1.21,25.78,39.66,1.86L296,448.32l-39.66-1.86Z"/><path class="cls-6" d="M273.55,445.6a.41.41,0,1,1-.39-.43A.4.4,0,0,1,273.55,445.6Z"/><path class="cls-6" d="M279.43,446.1l-4.59-.21a.27.27,0,0,1,0-.54l4.6.21a.28.28,0,0,1,.26.29A.28.28,0,0,1,279.43,446.1Z"/><g class="cls-18"><rect x="259.14" y="451.99" width="23.17" height="3.43" transform="translate(21.52 -12.17) rotate(2.68)"/><rect x="258.87" y="457.11" width="23.17" height="4.82" transform="translate(21.79 -12.15) rotate(2.68)"/><rect x="258.52" y="464.23" width="9.43" height="4.82" transform="translate(22.12 -11.8) rotate(2.68)"/><rect x="269.46" y="464.81" width="12.22" height="4.82" transform="matrix(1, 0.05, -0.05, 1, 22.16, -12.38)"/><rect x="285.25" y="452.82" width="6.07" height="6.07" transform="translate(21.64 -12.99) rotate(2.68)"/><rect x="284.81" y="460.49" width="6.07" height="9.71" transform="translate(22.08 -12.96) rotate(2.68)"/></g><path class="cls-19" d="M288.23,497.63l-43.69-2.05a1.81,1.81,0,0,1-1.45-2.78l9.82-18.29,44.19,2.07-5.35,18.53A3.51,3.51,0,0,1,288.23,497.63Z"/><polygon class="cls-7" points="288.94 491.66 248.46 489.76 255.15 476.35 293.3 478.14 288.94 491.66"/><polygon class="cls-6" points="285.93 490.37 252.2 488.79 257.77 477.62 289.56 479.11 285.93 490.37"/><path class="cls-6" d="M272.8,498.16l-9.58-.45a.38.38,0,0,1-.37-.41h0a.39.39,0,0,1,.41-.38l9.57.45a.39.39,0,0,1,.38.41h0A.39.39,0,0,1,272.8,498.16Z"/><polygon class="cls-5" points="273.88 495.49 263.03 494.98 264.82 491.39 275.04 491.87 273.88 495.49"/><ellipse class="cls-20" cx="145.73" cy="479.9" rx="24.25" ry="8.21"/><path class="cls-21" d="M170,479.9c0,4.53-10.86,8.2-24.25,8.2s-24.25-3.67-24.25-8.2v8.82c0,4.53,10.86,8.2,24.25,8.2s24.25-3.67,24.25-8.2Z"/><path class="cls-8" d="M145.73,488.1c10.17,0,18.87-1.75,22.47-4.24a3.75,3.75,0,0,0,.45-1.73c0-4.86-10.12-8.79-22.59-8.79s-22.58,3.93-22.58,8.79a4,4,0,0,0,.83,2.36C128.39,486.64,136.45,488.1,145.73,488.1Z"/><path class="cls-22" d="M145.73,488.1c8.51,0,16-1.48,20.32-3.73a3,3,0,0,0,.29-1.27c0-4.3-9.08-7.78-20.28-7.78s-20.28,3.48-20.28,7.78a3.33,3.33,0,0,0,.53,1.71C130.73,486.81,137.79,488.1,145.73,488.1Z"/><path class="cls-7" d="M193.64,482.74H169.69v0c-1,.21-1.8,1.92-1.8,4s.79,3.81,1.8,4h0a.43.43,0,0,0,.36,0h23.56Z"/><path class="cls-9" d="M208.27,486.79c0-2.47-1-4.47-2.21-4.48v-.08H193.64v.09c-1.19.07-2.15,2-2.15,4.47s1,4.41,2.15,4.48v.07h12.42v-.06C207.28,491.27,208.27,489.27,208.27,486.79Z"/><path class="cls-23" d="M128.44,485.65a55.5,55.5,0,0,0,17.29,2.45c7.31,0,13.86-1.09,18.3-2.82a3,3,0,0,0,.77-1.89c0-3.7-8.39-6.7-18.74-6.7s-18.74,3-18.74,6.7A3.27,3.27,0,0,0,128.44,485.65Z"/><path class="cls-24" d="M152.62,479c0,2.24-5.64,1.48-9.8,1.48S134,481,134,478.76s5.1-4.12,9.26-4.12S152.62,476.75,152.62,479Z"/><path class="cls-4" d="M208.27,486.79c0,2.48-1,4.49-2.22,4.49s-2.22-2-2.22-4.49,1-4.48,2.22-4.48S208.27,484.32,208.27,486.79Z"/></svg>