<svg xmlns="http://www.w3.org/2000/svg" xmlns:xlink="http://www.w3.org/1999/xlink" viewBox="0 0 382.08 326.83"><defs><style>.cls-1{fill:none;}.cls-2{fill:#f2f3f3;}.cls-3{fill:#ccc;}.cls-4{fill:#333;}.cls-5{fill:#e6e6e6;}.cls-24,.cls-6{fill:#fff;}.cls-7{fill:#b3b3b3;}.cls-8{fill:#cce2f8;}.cls-9{fill:#366ed8;}.cls-10{fill:#86a8e8;}.cls-11{clip-path:url(#clip-path);}.cls-12{fill:#8796a6;}.cls-13{fill:#c1845b;}.cls-14{fill:#dd9666;}.cls-15{fill:#a6714d;}.cls-16{clip-path:url(#clip-path-2);}.cls-17{fill:#f3a953;}.cls-18{opacity:0.16;}.cls-19{fill:#999;}.cls-20{fill:#4d4d4d;}.cls-21{fill:gray;}.cls-22{fill:#e0eefb;}.cls-23{fill:#ebf3fc;}.cls-24{opacity:0.72;}</style><clipPath id="clip-path"><rect class="cls-1" x="245.58" y="55.67" width="36" height="44.67" rx="5" ry="5"/></clipPath><clipPath id="clip-path-2"><rect class="cls-1" x="139.25" y="189.67" width="36" height="36" rx="5" ry="5"/></clipPath></defs><title>bg_mobile</title><g id="Calque_2" data-name="Calque 2"><g id="OBJECTS"><path class="cls-2" d="M382.08,163.6V326.83h-342S-5,321.56.46,270.45s95.1-51.75,106-61.43-6.66-22.37,50.69-44.37c33.94-13,89.22-20.79,124.48-18C331.69,150.55,382.08,163.6,382.08,163.6Z"/><path class="cls-2" d="M262.64,48c0,26.51-23.3,18.94-64.06,39.1-71.87,35.57-83.42,2.08-83.42-24.43S144.76,0,190.23,0,262.64,21.49,262.64,48Z"/><path class="cls-3" d="M269.8,251.17c0,3.28-34.17,5.94-76.32,5.94s-76.32-2.66-76.32-5.94,34.17-5.94,76.32-5.94S269.8,247.89,269.8,251.17Z"/><ellipse class="cls-3" cx="65.92" cy="262.49" rx="33.53" ry="7.96"/><ellipse class="cls-3" cx="144.37" cy="272.01" rx="57.2" ry="7.91"/><ellipse class="cls-3" cx="267.25" cy="267.06" rx="40.34" ry="19.25"/><ellipse class="cls-3" cx="332.76" cy="231.2" rx="25.83" ry="7.72"/><path class="cls-3" d="M175.25,217c0,1.48-16.13,2.69-36,2.69s-36-1.21-36-2.69,16.13-2.68,36-2.68S175.25,215.5,175.25,217Z"/><path class="cls-3" d="M313.66,216.89c0,.81-15.86,1.47-35.42,1.47s-35.42-.66-35.42-1.47,15.86-1.47,35.42-1.47S313.66,216.07,313.66,216.89Z"/><path class="cls-4" d="M332,222a11.86,11.86,0,0,1,.56,4.19c-.19,2,0,2.51-.56,2.51s-3.16.09-3.44,0-.75-1.86-1.21-1.39.09,1.29-.56,1.43-7.54.79-9.31,0-1.49-1.16.46-1.81,9-2.88,10.62-4.93S332,222,332,222Z"/><path class="cls-4" d="M334.3,178.85s-4.84,11.54-5.77,13.59,2.42,2.79,3.53,13.59a124.87,124.87,0,0,1,.75,17.69s-5.4,1.11-5.77-.75c0,0-.75-9.12-3.35-14.33s-4.47-9.5-4.1-14.52,5.21-28.49,5.21-28.49l5.59-11.36,6.14.93Z"/><rect class="cls-5" x="233.08" y="40.67" width="93.5" height="165.5" rx="10" ry="10"/><rect class="cls-6" x="238.58" y="46.68" width="82.72" height="153.47" rx="10" ry="10"/><rect class="cls-7" x="287.58" y="87.01" width="23.67" height="2.09"/><rect class="cls-7" x="287.58" y="92.01" width="19.66" height="2.09"/><rect class="cls-3" x="245.58" y="126.55" width="65.51" height="2.09"/><rect class="cls-3" x="245.58" y="136.55" width="68.08" height="2.09"/><rect class="cls-3" x="245.58" y="141.55" width="61.66" height="2.09"/><rect class="cls-3" x="245.58" y="131.55" width="68.08" height="2.09"/><rect class="cls-3" x="245.58" y="162.55" width="65.51" height="2.09"/><rect class="cls-3" x="245.58" y="172.55" width="68.08" height="2.09"/><rect class="cls-3" x="245.58" y="177.55" width="61.66" height="2.09"/><rect class="cls-3" x="245.58" y="182.55" width="48.44" height="2.09"/><rect class="cls-3" x="245.58" y="187.55" width="53.01" height="2.09"/><rect class="cls-3" x="245.58" y="167.55" width="68.08" height="2.09"/><rect class="cls-8" x="245.58" y="55.67" width="36" height="44.67" rx="5" ry="5"/><rect class="cls-9" x="287.58" y="70.01" width="26.08" height="9"/><rect class="cls-10" x="246.21" y="111.76" width="53.5" height="3.83"/><rect class="cls-10" x="246.21" y="118.76" width="59.31" height="3.83"/><rect class="cls-10" x="246.21" y="154.77" width="53.5" height="3.83"/><g class="cls-11"><path class="cls-12" d="M247.5,97.15c0-6,7.24-10.86,16.16-10.86s16.17,4.86,16.17,10.86v6H247.5Z"/></g><ellipse class="cls-6" cx="263.52" cy="88.88" rx="5.34" ry="1.78"/><path class="cls-13" d="M267.22,88.53s-.85,1.12-3.41,1.12-3.42-1.12-3.42-1.12v-4h6.83Z"/><polygon class="cls-14" points="257.4 66.89 256.94 74.65 261.14 78.39 266.75 78.39 270.11 74.18 269.55 66.33 264.97 64.47 259.74 65.03 257.4 66.89"/><path class="cls-14" d="M257.68,70.54s-1.68-2.8-3.17-2.8.18,3.08,1.59,4.39l1.4,1.31Z"/><path class="cls-14" d="M269.7,70.4s1.91-2.65,3.4-2.52-.45,3.05-2,4.24l-1.51,1.18Z"/><path class="cls-4" d="M256.94,71.43s-1.52,5.46-1.14,7,.39,6.63,7.72,6.91,7.53-4.48,7.62-6.91a52.39,52.39,0,0,0-1-8l-.93.05s1.49,6.4-5.66,6.4-5.66-5.37-5.84-6.74c-.1-.8-.74-.58-.74-.58Z"/><path class="cls-4" d="M256.94,69.48s.18-3.24-.38-4.08-.37-2.9,1.5-4.11,2.15-1,3.08-.94a58.64,58.64,0,0,0,5.89.56c.93-.09,3.18-.84,3.74,3.28s-.56,5.13-.66,6.16l-.93.05s-.66-2.57-1.68-3a5.15,5.15,0,0,0-3.37-.56c-1.31.28-2,.84-3.83.75s-2-.65-2.24-.09a15.07,15.07,0,0,0-.38,3.08Z"/><path class="cls-15" d="M262.82,70l-.18,3.36s.46,1,1.77.1L264,69.89S263.29,69,262.82,70Z"/><rect class="cls-5" x="80.58" y="53.67" width="125" height="139" rx="10" ry="10"/><rect class="cls-6" x="84.6" y="58.13" width="116.96" height="130.06" rx="10" ry="10"/><rect class="cls-8" x="92.58" y="67" width="47.33" height="47.33" rx="5" ry="5"/><path class="cls-12" d="M96.83,114.33c0-4.58,8.68-13.33,19.38-13.33s19.37,8.78,19.37,13.28Z"/><polygon class="cls-6" points="112.58 101.17 110.33 106.83 116.25 102.83 112.58 101.17"/><polygon class="cls-6" points="120.25 101.17 116.25 102.83 121.75 106.92 120.25 101.17"/><path class="cls-4" d="M130.58,92.67c-.17-2.17-3.17-10-6.17-15a8.09,8.09,0,0,0-8.33-3.73,8.09,8.09,0,0,0-8.33,3.73c-3,5-6,12.83-6.17,15s.17,7.45,14.5,4.36C130.41,100.12,130.75,94.82,130.58,92.67Z"/><polygon class="cls-13" points="114.08 94.83 112.58 101.17 116.25 102.83 120.25 101.17 118.42 94.5 114.08 94.83"/><path class="cls-14" d="M109.58,84.5s-2,11.17,6.5,11.33,7-10.83,7-10.83l-1.33-4-3.84-4-3.5.33Z"/><path class="cls-4" d="M109.58,84.5a5.56,5.56,0,0,0,6.67-4.83s.5,5.33,6.66,4.5l.67-2.17-3.33-4.83-2.84-1.67-5.16.33-3,7.5Z"/><path class="cls-15" d="M115.75,86l-.59,4.08a1.6,1.6,0,0,0,2,0l-.58-4.25S116,85.33,115.75,86Z"/><rect class="cls-9" x="148.25" y="81.67" width="42.67" height="9"/><rect class="cls-7" x="148.25" y="98.67" width="34.05" height="2.09"/><rect class="cls-7" x="148.25" y="108.67" width="21.79" height="2.09"/><rect class="cls-7" x="148.25" y="103.67" width="42.67" height="2.09"/><rect class="cls-10" x="92.58" y="130.83" width="53.5" height="3.83"/><rect class="cls-3" x="91.96" y="141.62" width="98.27" height="2.09"/><rect class="cls-3" x="91.96" y="151.62" width="91.97" height="2.09"/><rect class="cls-3" x="91.96" y="146.62" width="102.12" height="2.09"/><rect class="cls-3" x="91.96" y="170.62" width="75.02" height="2.09"/><rect class="cls-3" x="91.96" y="175.62" width="67.83" height="2.09"/><rect class="cls-10" x="92.58" y="159.84" width="53.5" height="3.83"/><rect class="cls-5" x="126.58" y="177.67" width="135" height="75.5" rx="10" ry="10"/><rect class="cls-6" x="130.6" y="181.44" width="127.08" height="68.23" rx="10" ry="10"/><rect class="cls-9" x="184.25" y="193.12" width="42.67" height="9"/><rect class="cls-7" x="184.25" y="210.12" width="34.05" height="2.09"/><rect class="cls-7" x="184.25" y="215.12" width="49.47" height="2.09"/><rect class="cls-3" x="139.17" y="238.07" width="107.85" height="2.09"/><rect class="cls-3" x="139.17" y="243.07" width="112.08" height="2.09"/><rect class="cls-10" x="139.79" y="230.28" width="53.5" height="3.83"/><rect class="cls-8" x="139.25" y="189.67" width="36" height="36" rx="5" ry="5"/><path class="cls-4" d="M157.85,217.23s9.57.69,9.57,0v-8.31c0-2.07-.62-10.32-3.75-13.32s-5.89-.81-5.89-.81-2.76-2.19-5.89.81-3.75,11.25-3.75,13.32v8.31c0,.69,9.58,0,9.58,0Z"/><g class="cls-16"><ellipse class="cls-12" cx="157.72" cy="224.31" rx="14.7" ry="11.02"/></g><path class="cls-6" d="M162.08,215c0,.67-2,4.72-4.32,4.72s-4.15-4-4.15-4.72,1.89-1.22,4.24-1.22S162.08,214.28,162.08,215Z"/><path class="cls-13" d="M160.94,214.67a5,5,0,0,1-3.22,1,4.52,4.52,0,0,1-3.13-1V211h6.35Z"/><path class="cls-14" d="M151.61,201.42s-1.57,10.31,6.15,10.5,6-10.75,6-11.07l-2.86-2.43-6.35-.57Z"/><path class="cls-4" d="M151.08,200.67s-.5,1.68,2.31,1.43,3.86-1.43,3.86-1.43-1.73,2.5-.48,2.62,5.81-1.87,6.25-2.62c0,0-3,3.81,1.5.81V199.1l-3.31-2.5h-6.62Z"/><path class="cls-15" d="M157.39,204.89l-.29,2.78a1,1,0,0,0,1.37,0l-.25-2.78S157.74,204.42,157.39,204.89Z"/><path class="cls-13" d="M341.28,111.82l-.28,6.89s5.21,1.86,5.21,0c0-.56.19-6.7.38-7.63S341.28,111.82,341.28,111.82Z"/><path class="cls-4" d="M341.21,226.55a11.66,11.66,0,0,1,.44,3.43c-.11,1.55,0,2.43-.67,2.54s-2.1.34-2.43,0-.18-1.11-.66-1.27-.67,1.16-1,1.94-5.42,2.76-7.63,2.76-2.1-.44-2-1.21,1.22-.34,2.54-1.77,6.53-6.09,6.86-7.08,4.09-.44,4.09-.44Z"/><path class="cls-4" d="M330.57,161.72s2.05,18.06,2.8,25.51,2,10.79,2.6,19.73.7,18.93.7,18.93,1.62.91,4.09-.44c0,0,3.59-14.58,3.78-19.79s-1.49-9.68-1.12-13.59,4.1-21,4.47-25.32-1.49-11.55-2.42-13.41-12.85,0-12.85,0l-2.23.93Z"/><path class="cls-17" d="M330.76,148.69s-2.05,4.65-.37,5.58,6.89,2.61,11.17,1.68,5.58-1.86,6.7-4.1,4.28-10.42,4.47-17.13a38.68,38.68,0,0,0-3.17-15.08,5.62,5.62,0,0,0-2.79-2c-.74-.19-3.91.37-4.84.37s-4.47-.56-7.63,3.72S330.76,148.69,330.76,148.69Z"/><path class="cls-18" d="M331.46,154.77a13.12,13.12,0,0,0,11.71-7.1c3.91-7.5,3.9-11.67,3.07-14.92s-5-7.42-5-7.42l-3-1.18c-.93,0-.75-6.74-3.91-2.46s-3.54,27-3.54,27-2.05,4.65-.37,5.58"/><path class="cls-14" d="M338.11,99.16a58.63,58.63,0,0,0-2.14,7.08c-.28,2-1.21,5.49,3.73,6.05s6.89-1.21,6.89-1.21l1.86-2.42,2.23-2.7.47-6.52L343.89,98Z"/><path class="cls-4" d="M340.35,100.75s-3.73-.75-3.17-3.36,5-3.9,6.71-4.65,6.42-.65,8.65,1.86a10.57,10.57,0,0,1,2.7,8.66c-.46,3-5.12,7.17-6,8.28a3.12,3.12,0,0,1-2.6,1.31c-.47-.1-2,.18-2.24-.37a6.43,6.43,0,0,1-.18-3.36c.28-1.11,2.05-2.42,2.05-2.42s3.07,0,2.79-1.86-1-2.14-2-1.86a4.79,4.79,0,0,0-1.58.84s-1,.46-1.12-.65-.09-1.68-1.11-1.87S340.91,100.93,340.35,100.75Z"/><path class="cls-15" d="M337.18,101.12l-1.49,3.81s.1,1,1.4.56l1-3.91S337.83,100.75,337.18,101.12Z"/><path class="cls-14" d="M306,152a6.87,6.87,0,0,1-2.7-.1c-.75-.37-2.14-1.86-3.17-2.14s-1.67,0-1.49.37,2.42,1.49,2.15,1.77a70.61,70.61,0,0,1-7.45,2.7c-1.4.37-.93,3.63.28,3.73s9.49-.19,13.31-3.73Z"/><path class="cls-17" d="M336.16,119.74a31.1,31.1,0,0,0-7.63,10.79c-2.8,6.71-3.26,7.64-4.1,8s-9.31,3.72-14.43,8.19-4.93,3.91-4.84,5,.56,3.35,1.58,3.44,18.81-.83,24.95-4.65,9.4-12.94,10-15.27,2.7-8.28.65-11.82S337.65,119,336.16,119.74Z"/><path class="cls-13" d="M84.21,125.67l-.88-6.88H80.58s-1.75,0-1.75.38-.37,7.87-.37,7.87l4.37-.25Z"/><rect class="cls-4" x="26.46" y="208.02" width="114.99" height="2" transform="translate(-129.62 280.58) rotate(-86.64)"/><rect class="cls-4" x="-2.34" y="205.44" width="116.59" height="2" transform="translate(-156.27 233.03) rotate(-81.98)"/><rect class="cls-4" x="49.66" y="250.16" width="31.82" height="2"/><rect class="cls-4" x="52.47" y="230.18" width="30.18" height="2"/><rect class="cls-4" x="55.06" y="212.3" width="28.65" height="2"/><rect class="cls-4" x="57.49" y="194.54" width="27.26" height="2"/><rect class="cls-4" x="59.62" y="179.42" width="26.02" height="2"/><rect class="cls-4" x="61.69" y="164.67" width="24.81" height="2"/><path class="cls-14" d="M120.25,125.54s3-1.12,3.83-2.37a9.25,9.25,0,0,1,3.38-2.63c.5-.12,1.37.13,1,.63a12.88,12.88,0,0,1-1.75,1.5,35.73,35.73,0,0,0,4.87-.63c1.25-.37,2.5-.75,2.88-.5s1.87,2.75.37,3.25-7.12,2.5-9.75,2.63-4.5.37-4.5.37Z"/><path class="cls-14" d="M82.08,119.67s4.16-1.54,4.83-2.84c1.09-2.08,1.55-3.29.55-6.54s-2.13-4.62-2.13-5.25-4.5-1.12-4.5-1.12L75.46,106l1.5,7.63Z"/><path class="cls-14" d="M62.33,209.17a26.5,26.5,0,0,0-2,2.43A35.08,35.08,0,0,0,55,222.54a113.76,113.76,0,0,0-3.13,15.38l3.5,1s5.38-10.63,7.5-14.63,4.25-6,4.5-7.37S69.21,209,69.21,209l-1.63-1Z"/><path class="cls-18" d="M62.83,224.29c2.13-4,4.25-6,4.5-7.37S69.21,209,69.21,209l-1.63-1-5.25,1.13a26.5,26.5,0,0,0-2,2.43,13.22,13.22,0,0,0,3.35,2.32C65,214.29,62.83,224.29,62.83,224.29Z"/><path class="cls-14" d="M65.83,209.79s-.21,1.56-.31,4.26A83,83,0,0,0,66,225.67c1,9.37,2.12,18,2.12,19s4.13.37,4.13.37,1.25-17.25,1.62-22.37c.19-2.52.37-5.72.49-8.5s.2-5.3.14-6c-.13-1.38-4.88-1.88-4.88-1.88Z"/><path class="cls-18" d="M74.32,214.17c.13-2.88.2-5.3.14-6-.13-1.38-4.88-1.88-4.88-1.88l-3.75,3.5s-.21,1.56-.31,4.26a17.49,17.49,0,0,0,8.19.12Z"/><path class="cls-4" d="M51.58,236.92a13.5,13.5,0,0,0-1.62,4.5c-.13,1.87-1,2-.13,2.37s3,1.25,3.38.88.75-1.25,1.12-1,.25,1.37.25,1.37,3.88,1.25,6,1.88,2.63.5,2.75,0-1.25-.63-2.5-1.88a68.71,68.71,0,0,1-5.25-6.75C55.46,237.92,52.58,238,51.58,236.92Z"/><path class="cls-4" d="M67.83,243.92a8.09,8.09,0,0,0-.37,4c.37,2.12-.5,3,.5,3.12s3.37.38,3.62,0,.13-1.62.63-1.37.12,1.5.75,1.5,7.87,0,9.12-.38.5-1.25-.37-1.5-3-.37-4.63-1.37-3.87-3.38-4.75-3.75C72.33,244.17,68.46,244.54,67.83,243.92Z"/><path class="cls-4" d="M63.25,159.33s-.83,1.46-1.85,3.66c-1.69,3.66-3.92,9.37-3.82,13.84C57.75,184,60.41,210,60.41,210s10.17,3.33,16,.83c0,0,4.67-34,5-40.66a48,48,0,0,0-.66-11.34Z"/><path class="cls-17" d="M63.41,133.83c-.22.48-2.16,4.84-2,12.5s-1.5,12.67.84,14.5,15.83,2.5,19.16.5,7.5-10.5,8-15.83a54.32,54.32,0,0,0,.34-7.67s8,4.17,14.16,3.5,15.34-9.16,17.5-13.83a8.11,8.11,0,0,0-.5-2.33c-.33-.5-3-1.17-8.33-.17s-8.17,3.33-11.5,3.17-10.17-4-13.83-4.34a42.5,42.5,0,0,0-12,1C71.41,125.67,66.41,127.33,63.41,133.83Z"/><path class="cls-18" d="M62.25,160.83c2.33,1.84,15.83,2.5,19.16.5s7.5-10.5,8-15.83a54.32,54.32,0,0,0,.34-7.67l-2.5-1.33a35.22,35.22,0,0,1-3.17,13.33c-3.17,6.84-5.5,9.17-10.67,9.67S62.25,160.83,62.25,160.83Z"/><path class="cls-4" d="M82.08,107.67s.17-2,1-1.84,2.83.5,3.33-.16,1.67-2.34-.66-3.67-2.84-3.33-8-3.67-9.5.67-11.17,8.34-1.33,15.33-2.83,19-3,7.5-2,8.33a14.89,14.89,0,0,0,6.33,2.67c2.17.16,3.33.66,3.83-.5a5.66,5.66,0,0,1,1-1.67s-.16,2.67.5,3,6,.83,8.67-.83,2.17-2.67,2-5.67-1.17-5.5-1.67-8.67.34-6.83-.83-8.33a14.31,14.31,0,0,0-2-2.17s-3.17-1-2.17-2.33,3,.17,3,.17A2.27,2.27,0,0,0,82.08,107.67Z"/><path class="cls-15" d="M86.87,108.11l1.49,2.79s-.09.74-1.39.4l-1-2.85A.7.7,0,0,1,86.87,108.11Z"/><path class="cls-5" d="M284.87,279.92l-49.54-2.32c-2.11-.1-5-2.22-2.84-5.86L246,251.11l47,2.2a2.05,2.05,0,0,1,1.87,2.61l-6,21.14A4,4,0,0,1,284.87,279.92Z"/><path class="cls-5" d="M293.39,253.33l-47.92-2.25L247,218.47a2.9,2.9,0,0,1,3-2.77l44.3,2.07c1.61.08,2.85,1.39,2.74,3.74l-1.39,29.73A2.2,2.2,0,0,1,293.39,253.33Z"/><path class="cls-7" d="M247,216.63h45.11a2.53,2.53,0,0,1,2.53,2.53v33a0,0,0,0,1,0,0H244.43a0,0,0,0,1,0,0v-33A2.53,2.53,0,0,1,247,216.63Z" transform="translate(11.26 -12.35) rotate(2.68)"/><rect class="cls-17" x="255.41" y="213.1" width="27.77" height="43.53" transform="translate(22.09 492.87) rotate(-87.32)"/><path class="cls-6" d="M248.92,220.76l42,2L289.67,249l-42-2,1.23-26.24m-1.43-1.57-1.37,29.23,45,2.11,1.37-29.23-45-2.11Z"/><path class="cls-6" d="M267,218.21a.46.46,0,0,1-.48.44.47.47,0,0,1-.44-.48.45.45,0,0,1,.48-.44A.45.45,0,0,1,267,218.21Z"/><path class="cls-6" d="M273.71,218.78l-5.21-.24a.32.32,0,0,1-.3-.32.3.3,0,0,1,.32-.29l5.21.24a.32.32,0,0,1,.3.32A.31.31,0,0,1,273.71,218.78Z"/><g class="cls-18"><rect x="250.69" y="225.46" width="26.28" height="3.9" transform="translate(10.93 -12.09) rotate(2.68)"/><rect x="250.38" y="231.27" width="26.28" height="5.46" transform="translate(11.24 -12.07) rotate(2.68)"/><rect x="249.99" y="239.34" width="10.7" height="5.46" transform="translate(11.6 -11.68) rotate(2.68)"/><rect x="262.39" y="240" width="13.86" height="5.46" transform="translate(11.65 -12.33) rotate(2.68)"/><rect x="280.31" y="226.4" width="6.89" height="6.89" transform="translate(11.06 -13.02) rotate(2.68)"/><rect x="279.8" y="235.1" width="6.89" height="11.01" transform="translate(11.56 -12.99) rotate(2.68)"/></g><path class="cls-19" d="M283.68,277.22l-49.54-2.32a2.06,2.06,0,0,1-1.65-3.16L243.62,251l50.12,2.34-6.07,21A4,4,0,0,1,283.68,277.22Z"/><polygon class="cls-7" points="284.48 270.44 238.58 268.3 246.17 253.09 289.43 255.12 284.48 270.44"/><polygon class="cls-6" points="281.07 268.99 242.82 267.2 249.14 254.53 285.19 256.21 281.07 268.99"/><path class="cls-6" d="M266.18,277.82l-10.86-.51a.45.45,0,0,1-.43-.47h0a.46.46,0,0,1,.48-.43l10.85.51a.45.45,0,0,1,.43.47h0A.45.45,0,0,1,266.18,277.82Z"/><polygon class="cls-5" points="267.4 274.79 255.1 274.21 257.14 270.14 268.73 270.68 267.4 274.79"/><ellipse class="cls-20" cx="122.08" cy="257.11" rx="27.5" ry="9.31"/><path class="cls-21" d="M149.58,257.11c0,5.14-12.31,9.31-27.5,9.31s-27.5-4.17-27.5-9.31v10c0,5.14,12.31,9.31,27.5,9.31s27.5-4.17,27.5-9.31Z"/><path class="cls-8" d="M122.08,266.42c11.53,0,21.4-2,25.49-4.82a4.32,4.32,0,0,0,.5-2c0-5.51-11.47-10-25.61-10s-25.61,4.46-25.61,10a4.57,4.57,0,0,0,.94,2.68C102.42,264.76,111.56,266.42,122.08,266.42Z"/><path class="cls-22" d="M122.08,266.42c9.66,0,18.14-1.69,23-4.23a3.6,3.6,0,0,0,.33-1.45c0-4.87-10.3-8.82-23-8.82s-23,4-23,8.82a3.71,3.71,0,0,0,.6,1.94C105.07,265,113.07,266.42,122.08,266.42Z"/><path class="cls-7" d="M176.42,260.33H149.25v0c-1.15.24-2,2.18-2,4.56s.89,4.32,2,4.56h0a1.55,1.55,0,0,0,.21,0,1.42,1.42,0,0,0,.2,0h26.73Z"/><path class="cls-9" d="M193,264.93c0-2.8-1.13-5.08-2.51-5.09v-.09H176.42v.11c-1.36.08-2.45,2.31-2.45,5.07s1.09,5,2.45,5.07v.08H190.5V270C191.88,270,193,267.73,193,264.93Z"/><path class="cls-23" d="M102.48,263.63a62.58,62.58,0,0,0,19.6,2.79c8.29,0,15.71-1.25,20.75-3.21a3.39,3.39,0,0,0,.88-2.14c0-4.2-9.52-7.6-21.25-7.6s-21.25,3.4-21.25,7.6A3.66,3.66,0,0,0,102.48,263.63Z"/><path class="cls-24" d="M129.89,256.08c0,2.54-6.39,1.68-11.11,1.68s-10,.6-10-1.94,5.78-4.67,10.5-4.67S129.89,253.54,129.89,256.08Z"/><path class="cls-4" d="M193,264.93c0,2.81-1.13,5.09-2.52,5.09s-2.52-2.28-2.52-5.09,1.13-5.09,2.52-5.09S193,262.12,193,264.93Z"/></g></g></svg>