<svg id="OBJECTS" xmlns="http://www.w3.org/2000/svg" xmlns:xlink="http://www.w3.org/1999/xlink" viewBox="0 0 750 500"><defs><style>.cls-1{fill:none;}.cls-2{fill:#f2f3f3;}.cls-3{fill:#ccc;}.cls-4{fill:#333;}.cls-5{fill:#e6e6e6;}.cls-24,.cls-6{fill:#fff;}.cls-7{fill:#b3b3b3;}.cls-8{fill:#cce2f8;}.cls-9{fill:#366ed8;}.cls-10{fill:#86a8e8;}.cls-11{clip-path:url(#clip-path);}.cls-12{fill:#8796a6;}.cls-13{fill:#c1845b;}.cls-14{fill:#dd9666;}.cls-15{fill:#a6714d;}.cls-16{clip-path:url(#clip-path-2);}.cls-17{fill:#f3a953;}.cls-18{opacity:0.16;}.cls-19{fill:#999;}.cls-20{fill:#4d4d4d;}.cls-21{fill:gray;}.cls-22{fill:#e0eefb;}.cls-23{fill:#ebf3fc;}.cls-24{opacity:0.72;}</style><clipPath id="clip-path"><rect class="cls-1" x="575.45" y="154.12" width="45.92" height="56.97" rx="5" ry="5"/></clipPath><clipPath id="clip-path-2"><rect class="cls-1" x="439.83" y="325.04" width="45.92" height="45.92" rx="5" ry="5"/></clipPath></defs><title>bg_right</title><path class="cls-2" d="M749.56,239.49V0H464.34s-18.56,38.07,32.88,44,124.17,11.9,143.93,58.67S677.92,232,742.55,237.05Z"/><path class="cls-2" d="M749.56,291.79V500H313.35s-57.51-6.73-50.55-71.92,121.31-66,135.14-78.35-8.5-28.53,64.65-56.6c43.3-16.62,113.81-26.52,158.78-23C685.29,275.15,749.56,291.79,749.56,291.79Z"/><path class="cls-2" d="M597.21,144.35c0,33.81-29.72,24.15-81.7,49.87-91.68,45.36-106.4,2.65-106.4-31.17s37.74-79.93,95.74-79.93S597.21,110.53,597.21,144.35Z"/><path class="cls-3" d="M606.35,403.49c0,4.19-43.58,7.58-97.35,7.58s-97.34-3.39-97.34-7.58,43.58-7.57,97.34-7.57S606.35,399.31,606.35,403.49Z"/><ellipse class="cls-3" cx="346.3" cy="417.92" rx="42.77" ry="10.15"/><ellipse class="cls-3" cx="446.36" cy="430.08" rx="72.95" ry="10.08"/><ellipse class="cls-3" cx="603.1" cy="423.75" rx="51.45" ry="24.55"/><ellipse class="cls-3" cx="686.65" cy="378.02" rx="32.94" ry="9.85"/><path class="cls-3" d="M485.74,359.88c0,1.89-20.57,3.43-46,3.43s-46-1.54-46-3.43,20.58-3.42,46-3.42S485.74,358,485.74,359.88Z"/><path class="cls-3" d="M662.29,359.76c0,1-20.23,1.88-45.18,1.88s-45.18-.84-45.18-1.88,20.23-1.87,45.18-1.87S662.29,358.73,662.29,359.76Z"/><path class="cls-4" d="M685.68,366.22a15.41,15.41,0,0,1,.72,5.34c-.24,2.5,0,3.21-.72,3.21s-4,.12-4.39,0-.95-2.38-1.54-1.78.12,1.65-.72,1.83-9.61,1-11.87,0-1.9-1.48.59-2.31,11.52-3.68,13.54-6.29S685.68,366.22,685.68,366.22Z"/><path class="cls-4" d="M688.61,311.24s-6.17,14.73-7.36,17.34,3.09,3.56,4.51,17.33a158.2,158.2,0,0,1,1,22.56s-6.88,1.43-7.36-.94c0,0-1-11.64-4.27-18.29s-5.7-12.11-5.23-18.52,6.65-36.34,6.65-36.34l7.13-14.48,7.83,1.18Z"/><rect class="cls-5" x="559.51" y="134.99" width="119.26" height="211.1" rx="10" ry="10"/><rect class="cls-6" x="566.53" y="142.66" width="105.52" height="195.76" rx="10" ry="10"/><rect class="cls-7" x="629.03" y="194.1" width="30.2" height="2.67"/><rect class="cls-7" x="629.03" y="200.48" width="25.08" height="2.67"/><rect class="cls-3" x="575.45" y="244.54" width="83.56" height="2.67"/><rect class="cls-3" x="575.45" y="257.29" width="86.83" height="2.67"/><rect class="cls-3" x="575.45" y="263.67" width="78.65" height="2.67"/><rect class="cls-3" x="575.45" y="250.91" width="86.83" height="2.67"/><rect class="cls-3" x="575.45" y="290.46" width="83.56" height="2.67"/><rect class="cls-3" x="575.45" y="303.21" width="86.83" height="2.67"/><rect class="cls-3" x="575.45" y="309.59" width="78.65" height="2.67"/><rect class="cls-3" x="575.45" y="315.97" width="61.79" height="2.67"/><rect class="cls-3" x="575.45" y="322.35" width="67.61" height="2.67"/><rect class="cls-3" x="575.45" y="296.84" width="86.83" height="2.67"/><rect class="cls-8" x="575.45" y="154.12" width="45.92" height="56.97" rx="5" ry="5"/><rect class="cls-9" x="629.03" y="172.42" width="33.26" height="11.48"/><rect class="cls-10" x="576.25" y="225.67" width="68.24" height="4.89"/><rect class="cls-10" x="576.25" y="234.6" width="75.65" height="4.89"/><rect class="cls-10" x="576.25" y="280.53" width="68.24" height="4.89"/><g class="cls-11"><path class="cls-12" d="M577.9,207c0-7.65,9.23-13.85,20.62-13.85s20.62,6.2,20.62,13.85v7.66H577.9Z"/></g><ellipse class="cls-6" cx="598.34" cy="196.49" rx="6.81" ry="2.27"/><path class="cls-13" d="M603.05,196s-1.07,1.43-4.35,1.43-4.35-1.43-4.35-1.43V191h8.7Z"/><polygon class="cls-14" points="590.53 168.45 589.94 178.34 595.3 183.11 602.45 183.11 606.75 177.74 606.03 167.73 600.19 165.35 593.51 166.06 590.53 168.45"/><path class="cls-14" d="M590.89,173.09s-2.14-3.57-4-3.57.24,3.93,2,5.6l1.78,1.67Z"/><path class="cls-14" d="M606.21,172.91s2.45-3.37,4.35-3.21-.58,3.9-2.5,5.41l-1.93,1.5Z"/><path class="cls-4" d="M589.94,174.23s-1.94,7-1.45,8.88.49,8.46,9.85,8.82,9.6-5.72,9.72-8.82-1.32-10.25-1.32-10.25l-1.19,0s1.91,8.17-7.21,8.17-7.22-6.85-7.45-8.6c-.13-1-.95-.74-.95-.74Z"/><path class="cls-4" d="M589.94,171.74s.24-4.13-.48-5.2-.48-3.7,1.91-5.25,2.74-1.31,3.93-1.19,6.32.84,7.51.72,4.05-1.08,4.77,4.17-.72,6.56-.84,7.87l-1.19,0s-.83-3.27-2.14-3.87a6.52,6.52,0,0,0-4.29-.71c-1.67.35-2.51,1.07-4.89.95s-2.5-.83-2.86-.12a19,19,0,0,0-.48,3.93Z"/><path class="cls-15" d="M597.45,172.38l-.24,4.29s.6,1.31,2.26.12l-.59-4.53S598,171.19,597.45,172.38Z"/><rect class="cls-5" x="365" y="151.57" width="159.44" height="177.3" rx="10" ry="10"/><rect class="cls-6" x="370.12" y="157.27" width="149.19" height="165.9" rx="10" ry="10"/><rect class="cls-8" x="380.3" y="168.58" width="60.37" height="60.37" rx="5" ry="5"/><path class="cls-12" d="M385.72,229c0-5.84,11.07-17,24.72-17s24.71,11.2,24.71,16.94Z"/><polygon class="cls-6" points="405.81 212.16 402.94 219.39 410.49 214.29 405.81 212.16"/><polygon class="cls-6" points="415.59 212.16 410.49 214.29 417.5 219.49 415.59 212.16"/><path class="cls-4" d="M428.77,201.32c-.21-2.77-4-12.76-7.86-19.13-3.28-5.47-9.05-5-10.63-4.76-1.59-.24-7.35-.71-10.63,4.76-3.83,6.37-7.66,16.36-7.87,19.13s.22,9.51,18.5,5.57C428.56,210.83,429,204.07,428.77,201.32Z"/><polygon class="cls-13" points="407.73 204.08 405.81 212.16 410.49 214.29 415.59 212.16 413.25 203.66 407.73 204.08"/><path class="cls-14" d="M402,190.9s-2.56,14.24,8.29,14.46,8.92-13.82,8.92-13.82l-1.7-5.1-4.89-5.11-4.46.43Z"/><path class="cls-4" d="M402,190.9s7,1.49,8.5-6.16c0,0,.64,6.8,8.5,5.74l.85-2.77-4.25-6.16L412,179.42l-6.59.43-3.83,9.56Z"/><path class="cls-15" d="M409.85,192.81l-.74,5.21a2,2,0,0,0,2.55,0l-.75-5.42S410.17,192,409.85,192.81Z"/><rect class="cls-9" x="451.31" y="187.29" width="54.42" height="11.48"/><rect class="cls-7" x="451.31" y="208.97" width="43.43" height="2.67"/><rect class="cls-7" x="451.31" y="221.73" width="27.8" height="2.67"/><rect class="cls-7" x="451.31" y="215.35" width="54.42" height="2.67"/><rect class="cls-10" x="380.3" y="250" width="68.24" height="4.89"/><rect class="cls-3" x="379.5" y="263.76" width="125.35" height="2.67"/><rect class="cls-3" x="379.5" y="276.51" width="117.31" height="2.67"/><rect class="cls-3" x="379.5" y="270.14" width="130.26" height="2.67"/><rect class="cls-3" x="379.5" y="300.75" width="95.7" height="2.67"/><rect class="cls-3" x="379.5" y="307.13" width="86.52" height="2.67"/><rect class="cls-10" x="380.3" y="286.99" width="68.24" height="4.89"/><rect class="cls-5" x="423.67" y="309.74" width="172.19" height="96.3" rx="10" ry="10"/><rect class="cls-6" x="428.8" y="314.55" width="162.09" height="87.02" rx="10" ry="10"/><rect class="cls-9" x="497.22" y="329.45" width="54.42" height="11.48"/><rect class="cls-7" x="497.22" y="351.13" width="43.43" height="2.67"/><rect class="cls-7" x="497.22" y="357.51" width="63.1" height="2.67"/><rect class="cls-3" x="439.72" y="386.78" width="137.57" height="2.67"/><rect class="cls-3" x="439.72" y="393.16" width="142.96" height="2.67"/><rect class="cls-10" x="440.52" y="376.85" width="68.24" height="4.89"/><rect class="cls-8" x="439.83" y="325.04" width="45.92" height="45.92" rx="5" ry="5"/><path class="cls-4" d="M463.55,360.2s12.21.88,12.21,0V349.6c0-2.63-.8-13.16-4.78-17s-7.51-1-7.51-1-3.53-2.79-7.51,1-4.79,14.35-4.79,17v10.6c0,.88,12.21,0,12.21,0Z"/><g class="cls-16"><ellipse class="cls-12" cx="463.38" cy="369.24" rx="18.75" ry="14.05"/></g><path class="cls-6" d="M469,357.29c0,.86-2.52,6-5.51,6s-5.3-5.16-5.3-6,2.42-1.55,5.41-1.55S469,356.44,469,357.29Z"/><path class="cls-13" d="M467.49,356.93a6.27,6.27,0,0,1-4.11,1.28,5.77,5.77,0,0,1-4-1.28v-4.68h8.1Z"/><path class="cls-14" d="M455.59,340s-2,13.15,7.85,13.39,7.7-13.71,7.7-14.11l-3.65-3.11-8.1-.71Z"/><path class="cls-4" d="M454.92,339.07s-.64,2.16,2.95,1.84,4.91-1.84,4.91-1.84-2.2,3.19-.61,3.35,7.42-2.39,8-3.35c0,0-3.83,4.87,1.91,1v-3l-4.23-3.19h-8.44Z"/><path class="cls-15" d="M463,344.46l-.37,3.54a1.33,1.33,0,0,0,1.75,0l-.32-3.54S463.41,343.86,463,344.46Z"/><path class="cls-13" d="M697.52,225.75l-.36,8.79s6.65,2.37,6.65,0c0-.71.24-8.55.48-9.74S697.52,225.75,697.52,225.75Z"/><path class="cls-4" d="M697.42,372.09a14.75,14.75,0,0,1,.57,4.37c-.14,2,0,3.11-.85,3.25s-2.68.42-3.1,0-.23-1.42-.85-1.62-.84,1.48-1.27,2.46-6.91,3.53-9.73,3.53-2.68-.56-2.54-1.55,1.55-.42,3.24-2.26,8.33-7.76,8.75-9,5.22-.56,5.22-.56Z"/><path class="cls-4" d="M683.86,289.4s2.62,23,3.57,32.53,2.61,13.77,3.32,25.17.89,24.14.89,24.14,2.07,1.17,5.22-.56c0,0,4.58-18.59,4.81-25.24s-1.9-12.35-1.42-17.34,5.22-26.83,5.7-32.29-1.9-14.73-3.09-17.1-16.38,0-16.38,0l-2.85,1.19Z"/><path class="cls-17" d="M684.1,272.77s-2.61,5.94-.47,7.13,8.78,3.32,14.24,2.13,7.13-2.37,8.55-5.22,5.47-13.3,5.7-21.85a49.45,49.45,0,0,0-4-19.23,7.39,7.39,0,0,0-3.57-2.62c-.95-.23-5,.48-6.17.48s-5.7-.71-9.74,4.75S684.1,272.77,684.1,272.77Z"/><path class="cls-18" d="M685,280.53a16.74,16.74,0,0,0,14.94-9.06c5-9.57,5-14.88,3.92-19s-6.39-9.46-6.39-9.46l-3.86-1.5c-1.19,0-1-8.6-5-3.14s-4.51,34.43-4.51,34.43-2.61,5.94-.47,7.13"/><path class="cls-14" d="M693.48,209.6a75.89,75.89,0,0,0-2.73,9c-.36,2.49-1.54,7,4.75,7.72s8.79-1.55,8.79-1.55l2.37-3.08,2.85-3.45.59-8.31-9.26-1.9Z"/><path class="cls-4" d="M696.33,211.62s-4.75-1-4-4.27,6.42-5,8.55-5.94,8.2-.83,11,2.38a13.55,13.55,0,0,1,3.44,11c-.6,3.8-6.53,9.14-7.6,10.57a4,4,0,0,1-3.33,1.66c-.59-.12-2.49.24-2.84-.48a8.07,8.07,0,0,1-.24-4.27c.35-1.43,2.61-3.09,2.61-3.09s3.92,0,3.56-2.37-1.3-2.73-2.49-2.38a6.18,6.18,0,0,0-2,1.07s-1.31.6-1.42-.83-.12-2.14-1.43-2.37S697,211.86,696.33,211.62Z"/><path class="cls-15" d="M692.29,212.1l-1.9,4.87s.12,1.3,1.78.71l1.31-5S693.12,211.62,692.29,212.1Z"/><path class="cls-14" d="M652.52,276.93s-2.5.35-3.45-.12-2.73-2.37-4-2.73-2.14,0-1.9.47,3.08,1.9,2.73,2.26a88.68,88.68,0,0,1-9.5,3.44c-1.78.48-1.19,4.63.35,4.75s12.12-.23,17-4.75Z"/><path class="cls-17" d="M691,235.85a39.68,39.68,0,0,0-9.74,13.77c-3.56,8.55-4.15,9.74-5.22,10.21s-11.88,4.75-18.41,10.45-6.29,5-6.17,6.41.71,4.28,2,4.39,24-1.06,31.82-5.93,12-16.51,12.7-19.48,3.45-10.56.83-15.07S692.89,234.9,691,235.85Z"/><path class="cls-13" d="M369.62,243.41l-1.12-8.77H365s-2.24,0-2.24.48-.47,10-.47,10l5.58-.32Z"/><rect class="cls-4" x="295.96" y="348.45" width="146.68" height="2.55" transform="translate(-1.47 697.89) rotate(-86.64)"/><rect class="cls-4" x="259.23" y="345.16" width="148.71" height="2.55" transform="translate(-56.03 628.39) rotate(-81.98)"/><rect class="cls-4" x="325.56" y="402.2" width="40.58" height="2.55"/><rect class="cls-4" x="329.14" y="376.72" width="38.49" height="2.55"/><rect class="cls-4" x="332.44" y="353.91" width="36.54" height="2.55"/><rect class="cls-4" x="335.54" y="331.25" width="34.77" height="2.55"/><rect class="cls-4" x="338.26" y="311.97" width="33.19" height="2.55"/><rect class="cls-4" x="340.91" y="293.16" width="31.65" height="2.55"/><path class="cls-14" d="M415.59,243.25s3.77-1.43,4.89-3a11.71,11.71,0,0,1,4.31-3.35c.63-.16,1.75.16,1.27.8a15.91,15.91,0,0,1-2.23,1.91,47.65,47.65,0,0,0,6.22-.79c1.59-.48,3.19-1,3.66-.64s2.4,3.51.48,4.14-9.09,3.19-12.43,3.35-5.74.48-5.74.48Z"/><path class="cls-14" d="M366.91,235.76s5.31-2,6.16-3.62c1.39-2.65,2-4.2.69-8.34s-2.71-5.9-2.71-6.7-5.74-1.43-5.74-1.43l-6.85,2.71,1.91,9.72Z"/><path class="cls-14" d="M341.72,349.91a34.53,34.53,0,0,0-2.51,3.11,44.82,44.82,0,0,0-6.9,14,145,145,0,0,0-4,19.62l4.47,1.27s6.85-13.55,9.57-18.65,5.42-7.66,5.73-9.41,2.4-10,2.4-10l-2.08-1.28Z"/><path class="cls-18" d="M342.36,369.21c2.71-5.11,5.42-7.66,5.73-9.41s2.4-10,2.4-10l-2.08-1.28-6.69,1.43a34.53,34.53,0,0,0-2.51,3.11s2.67,2.48,4.26,3S342.36,369.21,342.36,369.21Z"/><path class="cls-14" d="M346.18,350.71s-.27,2-.39,5.43a105.27,105.27,0,0,0,.55,14.82c1.28,12,2.71,23,2.71,24.24s5.26.47,5.26.47,1.6-22,2.08-28.54c.23-3.2.47-7.29.62-10.83s.25-6.77.17-7.66c-.16-1.75-6.22-2.39-6.22-2.39Z"/><path class="cls-18" d="M357,356.3c.17-3.68.25-6.77.17-7.66-.16-1.75-6.22-2.39-6.22-2.39l-4.78,4.46s-.27,2-.39,5.43a22.24,22.24,0,0,0,10.44.15Z"/><path class="cls-4" d="M328,385.31s-1.92,3.35-2.08,5.74-1.27,2.55-.16,3,3.83,1.59,4.31,1.12,1-1.6,1.43-1.28.32,1.75.32,1.75,4.94,1.6,7.66,2.4,3.34.63,3.5,0-1.59-.8-3.19-2.4a87.23,87.23,0,0,1-6.69-8.61C333,386.59,329.28,386.75,328,385.31Z"/><path class="cls-4" d="M348.73,394.24a10.47,10.47,0,0,0-.48,5.1c.48,2.71-.63,3.83.64,4s4.31.48,4.63,0,.16-2.08.79-1.76.16,1.92,1,1.92,10,0,11.64-.48.64-1.6-.48-1.92-3.83-.47-5.9-1.75-4.94-4.3-6.06-4.78C354.47,394.56,349.53,395,348.73,394.24Z"/><path class="cls-4" d="M342.89,286.35s-1.05,1.86-2.35,4.67c-2.16,4.67-5,12-4.88,17.65.21,9.14,3.61,42.31,3.61,42.31s13,4.25,20.41,1.06c0,0,5.95-43.37,6.38-51.87a61.81,61.81,0,0,0-.85-14.46Z"/><path class="cls-17" d="M343.1,253.83c-.28.61-2.76,6.16-2.55,15.94s-1.91,16.16,1.06,18.5,20.2,3.18,24.45.63,9.56-13.39,10.2-20.19a68.28,68.28,0,0,0,.43-9.78s10.2,5.31,18.07,4.46,19.56-11.69,22.32-17.64a10.55,10.55,0,0,0-.64-3c-.42-.64-3.83-1.49-10.63-.21s-10.41,4.25-14.67,4-13-5.1-17.64-5.53a53.88,53.88,0,0,0-15.31,1.28C353.3,243.41,346.93,245.54,343.1,253.83Z"/><path class="cls-18" d="M341.61,288.27c3,2.33,20.2,3.18,24.45.63s9.56-13.39,10.2-20.19a68.28,68.28,0,0,0,.43-9.78l-3.19-1.7a44.94,44.94,0,0,1-4,17c-4,8.72-7,11.7-13.61,12.33S341.61,288.27,341.61,288.27Z"/><path class="cls-4" d="M366.91,220.45s.21-2.55,1.27-2.34,3.62.64,4.26-.21,2.12-3-.85-4.68S368,209,361.38,208.55s-12.12.85-14.24,10.63-1.7,19.55-3.62,24.23S339.7,253,341,254s5.32,3.19,8.08,3.4,4.25.85,4.89-.64a7.09,7.09,0,0,1,1.28-2.12s-.22,3.4.63,3.82,7.66,1.07,11.06-1.06,2.76-3.4,2.55-7.23-1.49-7-2.13-11.05.43-8.72-1.06-10.63a18,18,0,0,0-2.55-2.76s-4-1.28-2.76-3,3.82.21,3.82.21A2.87,2.87,0,0,0,366.91,220.45Z"/><path class="cls-15" d="M373,221l1.9,3.56s-.12,1-1.78.52l-1.31-3.64A.9.9,0,0,1,373,221Z"/><path class="cls-5" d="M625.57,440.16l-63.19-3c-2.7-.13-6.35-2.83-3.62-7.47L576,403.41l60,2.81a2.61,2.61,0,0,1,2.4,3.32l-7.68,27A5,5,0,0,1,625.57,440.16Z"/><path class="cls-5" d="M636.44,406.24l-61.13-2.86,2-41.6a3.73,3.73,0,0,1,3.89-3.54l56.5,2.65c2.05.09,3.64,1.77,3.5,4.77l-1.78,37.91A2.8,2.8,0,0,1,636.44,406.24Z"/><path class="cls-7" d="M576.51,359.43h58.94A2.53,2.53,0,0,1,638,362v42.83a0,0,0,0,1,0,0H574a0,0,0,0,1,0,0V362a2.53,2.53,0,0,1,2.53-2.53Z" transform="translate(18.54 -27.93) rotate(2.68)"/><rect class="cls-17" x="587.79" y="354.72" width="35.83" height="55.93" transform="translate(195.09 969.82) rotate(-87.32)"/><path class="cls-6" d="M579.32,364.27l54.37,2.54-1.61,34.3-54.37-2.55,1.61-34.29m-1.43-1.57L576.14,400l57.37,2.69,1.75-37.29-57.37-2.69Z"/><path class="cls-6" d="M602.82,361.45a.59.59,0,0,1-1.18-.06.59.59,0,1,1,1.18.06Z"/><path class="cls-6" d="M611.33,362.18l-6.65-.31a.39.39,0,1,1,0-.78l6.64.31a.39.39,0,0,1,.38.41A.4.4,0,0,1,611.33,362.18Z"/><g class="cls-18"><rect x="581.97" y="370.7" width="33.51" height="4.97" transform="translate(18.11 -27.6) rotate(2.68)"/><rect x="581.58" y="378.1" width="33.51" height="6.97" transform="translate(18.51 -27.58) rotate(2.68)"/><rect x="581.08" y="388.41" width="13.64" height="6.97" transform="translate(18.98 -27.07) rotate(2.68)"/><rect x="596.9" y="389.24" width="17.68" height="6.97" transform="matrix(1, 0.05, -0.05, 1, 19.03, -27.91)"/><rect x="619.75" y="371.89" width="8.79" height="8.79" transform="translate(18.28 -28.78) rotate(2.68)"/><rect x="619.1" y="382.99" width="8.79" height="14.04" transform="matrix(1, 0.05, -0.05, 1, 18.93, -28.74)"/></g><path class="cls-19" d="M624.05,436.71l-63.19-3a2.62,2.62,0,0,1-2.1-4L573,403.27l63.92,3-7.74,26.81A5.06,5.06,0,0,1,624.05,436.71Z"/><polygon class="cls-7" points="625.07 428.08 566.53 425.33 576.2 405.94 631.38 408.52 625.07 428.08"/><polygon class="cls-6" points="620.72 426.22 571.93 423.93 579.99 407.77 625.98 409.93 620.72 426.22"/><path class="cls-6" d="M601.73,437.48l-13.85-.64a.59.59,0,0,1-.55-.61h0a.59.59,0,0,1,.61-.55l13.84.65a.58.58,0,0,1,.55.61h0A.56.56,0,0,1,601.73,437.48Z"/><polygon class="cls-5" points="603.29 433.62 587.6 432.88 590.19 427.69 604.98 428.38 603.29 433.62"/><ellipse class="cls-20" cx="417.93" cy="411.07" rx="35.08" ry="11.87"/><path class="cls-21" d="M453,411.07c0,6.55-15.71,11.87-35.08,11.87s-35.08-5.32-35.08-11.87v12.75c0,6.56,15.71,11.87,35.08,11.87S453,430.38,453,423.82Z"/><path class="cls-8" d="M417.93,422.94c14.71,0,27.3-2.54,32.51-6.14a5.54,5.54,0,0,0,.64-2.51c0-7-14.63-12.72-32.67-12.72s-32.67,5.7-32.67,12.72a5.84,5.84,0,0,0,1.21,3.42C392.85,420.82,404.5,422.94,417.93,422.94Z"/><path class="cls-22" d="M417.93,422.94c12.31,0,23.14-2.15,29.4-5.4a4.6,4.6,0,0,0,.41-1.84c0-6.22-13.13-11.26-29.33-11.26s-29.34,5-29.34,11.26a4.84,4.84,0,0,0,.77,2.48C396.24,421.07,406.44,422.94,417.93,422.94Z"/><path class="cls-7" d="M487.23,415.18H453l-.1,0-.09,0h-.21v0c-1.46.31-2.6,2.78-2.6,5.82s1.14,5.51,2.6,5.82h0a1.32,1.32,0,0,0,.26.05,1.28,1.28,0,0,0,.27-.05h34.08Z"/><path class="cls-9" d="M508.39,421c0-3.57-1.43-6.47-3.19-6.49v-.12h-18v.14c-1.73.1-3.11,2.95-3.11,6.47s1.38,6.37,3.11,6.47v.11h18v-.09C507,427.52,508.39,424.62,508.39,421Z"/><path class="cls-23" d="M392.92,419.39c6.36,2.19,15.22,3.55,25,3.55,10.57,0,20-1.59,26.47-4.09a4.33,4.33,0,0,0,1.11-2.73c0-5.36-12.13-9.7-27.1-9.7s-27.11,4.34-27.11,9.7A4.71,4.71,0,0,0,392.92,419.39Z"/><path class="cls-24" d="M427.89,409.75c0,3.24-8.15,2.15-14.17,2.15s-12.77.76-12.77-2.48,7.37-5.95,13.39-5.95S427.89,406.51,427.89,409.75Z"/><path class="cls-4" d="M508.39,421c0,3.59-1.43,6.49-3.21,6.49S502,424.63,502,421s1.44-6.49,3.21-6.49S508.39,417.46,508.39,421Z"/></svg>